<mxfile host="app.diagrams.net" modified="2022-09-29T08:25:30.047Z" agent="5.0 (Windows NT 10.0; Win64; x64) AppleWebKit/537.36 (KHTML, like Gecko) Chrome/105.0.0.0 Safari/537.36" etag="EwHNvEzLDJN36Sq8j7ZS" version="20.3.6" type="github">
  <diagram id="SDSbU5FDi8gtYgyl2kK8" name="第 1 页">
    <mxGraphModel dx="1038" dy="538" grid="1" gridSize="10" guides="1" tooltips="1" connect="1" arrows="1" fold="1" page="1" pageScale="1" pageWidth="2000" pageHeight="1169" math="0" shadow="0">
      <root>
        <mxCell id="0" />
        <mxCell id="1" parent="0" />
      </root>
    </mxGraphModel>
  </diagram>
</mxfile>
